# xmcd
#
# Track frame offsets: 
#        150
#        17722
#        37195
#        57172
#        79512
#        98950
#        115937
#        132157
#        150087
#        171720
#
# Disc length: 2521 seconds
#
# Revision: 16
# Processed by: cddbd v1.5.2PL0 Copyright (c) Steve Scherf et al.
# Submitted via: ExactAudioCopy v1.0b3
#
DISCID=7a09d70a
DTITLE=Mariah Carey - Music Box
DYEAR=1993
DGENRE=R&B/Pop
TTITLE0=Dreamlover
TTITLE1=Hero
TTITLE2=Anytime You Need A Friend
TTITLE3=Music Box
TTITLE4=Now That I Know
TTITLE5=Never Forget You
TTITLE6=Without You
TTITLE7=Just To Hold You Once Again
TTITLE8=I've Been Thinking About You
TTITLE9=All I've Ever Wanted
EXTD=YEAR: 1993
EXTT0=
EXTT1=
EXTT2=
EXTT3=
EXTT4=
EXTT5=
EXTT6=
EXTT7=
EXTT8=
EXTT9=
PLAYORDER=
